<?xml version="1.0" standalone="no"?>
<!DOCTYPE svg PUBLIC "-//W3C//DTD SVG 20010904//EN"
 "http://www.w3.org/TR/2001/REC-SVG-20010904/DTD/svg10.dtd">
<svg version="1.0" xmlns="http://www.w3.org/2000/svg"
 width="512.000000pt" height="512.000000pt" viewBox="0 0 512.000000 512.000000"
 preserveAspectRatio="xMidYMid meet">

<g transform="translate(0.000000,512.000000) scale(0.100000,-0.100000)"
fill="#000000" stroke="none">
<path d="M2745 5109 c-3 -8 -4 -543 -3 -1189 l3 -1175 1185 0 1185 0 -2 110
c-8 448 -179 927 -472 1320 -96 128 -338 370 -466 466 -387 288 -824 447
-1307 475 -96 6 -118 4 -123 -7z"/>
<path d="M2145 4739 c-427 -41 -847 -206 -1205 -473 -123 -91 -367 -335 -458
-457 -253 -341 -403 -707 -464 -1134 -16 -117 -16 -483 0 -600 61 -426 211
-794 461 -1130 96 -128 338 -370 466 -466 336 -250 704 -400 1130 -461 117
-16 483 -16 600 0 427 61 793 211 1134 464 122 91 366 335 457 458 224 300
369 625 440 984 25 129 52 411 41 439 -6 16 -92 17 -1187 17 l-1180 0 -2 1183
-3 1182 -70 1 c-38 1 -110 -2 -160 -7z"/>
</g>
</svg>
